<?xml version="1.0" encoding="utf-8"?>
<svg version="1.1" id="Layer_1" xmlns="http://www.w3.org/2000/svg" xmlns:xlink="http://www.w3.org/1999/xlink" x="0px" y="0px"
	 viewBox="0 0 3391 1364" enable-background="new 0 0 3391 1364" xml:space="preserve">
<path d="M3365.89,714.22c-1.26-0.32-2.45-0.63-3.62-0.94c-0.56,1.14-1.08,2.28-1.54,3.44c-1.69-0.44-3.37-0.84-5-1.24
	c-0.46-2.51-1.49-4.79-3.84-5.97c-0.96,1.3-1.76,2.7-2.39,4.17c-1.98-0.62-4.45-0.57-5.73-2.36c-0.46-1.11-0.42-2.32-0.51-3.46
	c-1.63-0.4-3.51-0.76-4.68,0.75c-1.84,2.44-6.11,1.44-6.94-1.31c-2.04-5.91-1.9-12.3-0.92-18.4
	c-1.002-15.962-0.967-28.931-0.45-33.67c5.05-10,0.58-21.23,1.87-31.79c8.11-3,15.54-7.5,23.55-10.75c2.76-1.7,7.13-2.64,7.57-6.42
	c-9.64-2.57-19.13-5.63-28.64-8.62c0.382-4.095-3.1-2.825-4.18-11.96c-1.86-0.67-3.7-1.36-5.48-2.05
	c1.399,0.543-1.032-23.233-1.592-25.214c-4.515-15.967-16.895-29.534-30.526-38.691c-4.825-3.241-6.657-3.397-8.552-9.165
	c-3.83-1.47-7.89-2.04-11.82-3.02c-4.51-2.84-6.44-8.22-10.07-11.93c-1.79-1.59-3.78-2.91-5.61-4.4c3.17-3.16,4.35-7.46,4.48-11.82
	c-1.07,0.55-2.04,1.21-3.14,1.52c-1.96-3.94-2.31-8.6-0.26-12.58c-1.39-1.91-2.16-4.14-2.12-6.49c-0.15-4.31-0.75-8.58-0.93-12.88
	c-0.66,0.02-1.97,0.07-2.63,0.09c-1.29,3.68-1.31,7.57-0.93,11.41c0.38,3.64-1.86,7.24-0.52,10.8c1.36,3.68,0.87,7.68,0.32,11.47
	c-1.15-0.08-2.26-0.16-3.32-0.24c-0.17,3.57,1.57,6.72,4.46,8.78c-2.49,3.15-5.21,6.07-8.23,8.69c-1.95,3.53-3.64,7.63-7.45,9.55
	c-4.18,1.02-8.68,1.42-12.01,4.42c0.08,1.489,0.499,3.038,0.121,4.527c-1.683,6.618-14.698,13.648-19.208,18.696
	c-13.094,14.658-20.662,33.097-17.853,52.887c-1.67,1.25-3.41,2.4-5.16,3.48c-1,3.77-1.53,8.47-5.46,10.38
	c-8.81,3.67-16.41,9.93-25.82,12.17c0.37,1.18,0.75,2.36,1.19,3.56c9.39,3.22,18.87,6.2,28.52,8.6c2.28,5.64,0.73,11.88,1.11,17.79
	c-0.47,7.62,4.19,14.36,4.08,21.93c-0.036,10.811-0.01,46.704-0.12,47.33c-2.76-0.64-4.84-2.66-7.44-3.58
	c-0.42,1.7-0.77,3.4-1.11,5.11c-11.793-2.31-7.727-8.302-13.93-11.91c-3.86,7.01-6.04,14.98-11.22,21.19
	c3.233,24.884-4.432,14.156,1.16,24.54c5.783,6.832,19.542,6.864,27.04,29.94c1.47,4.87,5.36,9.07,4.72,14.44
	c0.51,3.18-1.42,5.68-3.05,8.16c0.32,2.47,3.24,4.07,2.93,6.8c0.031,19.738,0.879,39.461,1.444,59.188
	c0.25,8.743,0.572,17.46,0.951,26.196c0.342,7.894,2.585,20.953-0.595,28.376c-0.78,1.82-2.39,3.21-2.88,5.14
	c1.14,2.16,4.11,3.64,3.7,6.41c0.25,6.6-5.71,10.72-8.94,15.76c-3.01,0.45-4.28-2.92-6.33-4.41c-1.63-2.1-5.37-2.57-6.45,0.26
	c-2.76,3.07-1.91,7.36-1.85,11.11c2.28-0.14,4.6-0.31,6.93-0.41c0.011,2.819-9.654,10.473-13.34,13.7c-2.09-2.4-1.81-5.88-3.47-8.42
	c-4.96-3.83-9.19-8.72-14.96-11.36c-3.147-0.984-16.634,4.284-23.44,11.25c-3.12,3.38-7.92,5.38-9.33,10.09
	c-0.72-0.42-1.4-0.83-2.03-1.22c-0.85-3.16-1.27-6.88-4.26-8.8c-4.77-3.56-9.01-7.94-14.23-10.8
	c-9.047,2.113-15.915,5.218-24.83,13.26c-0.26-14.43-0.01-28.86-0.11-43.3c0.04-4.83-1.1-10.4,2.99-14
	c-3.63-3.38-3.86-8.78-2.16-13.18c1.66-4.11,2.57-8.5,4.52-12.49c10.492-19.708,22.897-18.896,21.37-27.05
	c-1.11-5.63-0.57-11.36-0.81-17.04c-0.86-0.35-1.69-0.68-2.48-1.01c-1.17,0.92-1.91,2.85-3.52,2.84c-3.5,0.56-5.09-3.12-7.28-5.07
	c-1.48,2.15-3.52,3.63-6.2,3.05c-1.06-1.95-2.25-3.83-4-5.19c-0.92,1.3-1.77,2.62-2.61,3.94c-1.24-0.38-2.46-0.75-3.62-1.1
	c-1.99-7.75-0.96-15.81-1.19-23.7c0.28-8.53-0.63-17.13,0.45-25.6c2.61-8.12,1.1-16.67,1.65-25.02c5.67-1.71,11.16-4.04,16.35-6.91
	c3.37-2,8.3-2.04,9.72-6.37c-8.69-1.76-17.24-4.1-25.95-5.68c0.22-1.42,0.61-2.8,1.09-4.15c-1.64-2.22-2.46-4.84-2.97-7.5
	c-1.11-0.44-2.19-0.86-3.22-1.26c-0.776-11.844,3.299-22.373-14.52-43.1c-3.58-3.09-7.12-6.22-10.63-9.37
	c-3.5-3.33-8.82-4.78-10.26-9.89c-3.39-1.05-7.29-0.71-10.32-2.59c-3.24-4.91-6.36-10-11.16-13.57c0.91-1.89,2.57-3.66,2.64-5.82
	c-1.34-3.27-4.21-6.62-2.93-10.35c1.2-2.95-1.15-5.79-0.89-8.79c-0.25-3.95,0.61-9.55-4.01-11.26
	c-0.783,26.074-0.535,17.33,0.49,27.34c-1.57,0.54-4.62,0.77-4.14,3.09c0.66,2.51,2.8,4.34,3.99,6.64
	c-4.91,3.34-8.13,8.26-9.67,13.95c-3.8,0.96-7.62,1.75-11.45,2.45c-1.2,2.64-1.13,6.47-4.212,7.711
	c-18.157,7.313-29.636,32.848-29.168,51.359c0.07,2.77,1.57,6.29-1.45,8.05c-3.88,2.11-1.2,8.02-5.19,9.89
	c-7.67,3.15-14.58,7.79-22.24,10.93c0,0.64,0.01,1.94,0.01,2.58c8.38,2.2,17.14,3.06,25.35,5.9c2.01,7.88-0.85,16.51,1.54,24.46
	c2.16,6.68,0.52,13.78,1.32,20.65c-0.09,9.65,1.66,19.27,0.43,28.91c-3.08,0.65-6.54,0.79-8.39-2.21c-1.02-0.08-2.01-0.14-2.95-0.18
	c-0.62-2.18-1.03-4.56-2.59-6.28c-6.65,0.31-11.09,6.54-13.18,12.28c-2.73,6.71-0.7,14.06-2.26,20.99
	c-0.73,2.59,1.06,5.03,3.38,6.05c5.56,2.83,9.86,7.44,14.04,11.98c3.36,3.73,5.08,8.51,6.89,13.11c1.37,3.78,3.9,7.37,3.53,11.59
	c0.13,2.8-1.56,5.15-2.76,7.54c1.22,1.59,2.8,3.21,2.59,5.43c-0.114,7.652,1.84,8.024,0.95,32.6c-5.01,0.99-9.49,3.5-14.3,5.06
	c-5.48,1.66-8.03,7.35-12.67,10.26c-2.41,1.51-4.32,3.64-6.5,5.41c-1.13-3.27-1.05-7.43-4.27-9.47c-5.04-3.62-9.28-8.7-15.25-10.77
	c-7.17,2-14.77,4.17-20.07,9.75c-3.57,4.07-8.71,6.52-11.42,11.36c-2.04-2.88-1.2-7.12-4.16-9.42c-4.37-3.71-8.14-8.39-13.52-10.66
	c-4.24-0.79-8.15,1.54-12.12,2.53c-6.85,1.72-10.43,8.41-16.18,11.87c-2.34,1.49-3.27,4.22-4.62,6.49c-1.1-0.56-2.16-1.1-3.19-1.63
	c-0.71-2.52-0.7-5.46-2.44-7.53c-3.87-3.51-8.13-6.58-11.87-10.2c-1.36-3.26-0.89-7-0.92-10.46c1.15-2.89,3.42-5.27,4.7-8.15
	c-4.266-8.691-6.128-5.354-1.11-22.03c24.482-81.36,6.578-179.869-54.129-241.517c-25.568-25.964-55.402-47.472-87.911-63.923
	c1.18-4.06,2.58-8.11,2.59-12.38c-1.93,0-3.83,0.12-5.7,0.32c0.26-1.59,0.54-3.18,0.9-4.75c-2.84-1.58-5.86,0.23-8.61,1.01
	c-0.2-1.86-0.41-3.71-0.61-5.55c-4.07,0.02-7.9,1.68-11.97,1.59c-0.62-1.26-1.21-2.51-1.79-3.74c-3.46-0.09-6.94,0.21-10.33-0.37
	c-22.401-19.735-39.142-54.101-49.14-62.99c-3.83-4.1-10.24-4.71-13.32-9.66c-2.99-4.49-7.12-7.96-11.96-10.3v-2.44
	c1.79-1.45,5.62-2,5.01-5.02c-1.65-2.56-6.48-2.91-6.13-6.75c3.719-1.08,7.668-2.309,10.428-5.197
	c4.931-5.16,5.931-12.111,3.511-18.767c-2.733-7.515-10.096-10.169-14.899-16.316c0.57-1.06,1.18-2.11,1.81-3.16
	c-0.74-1.52-1.39-3.07-1.91-4.65c2.14-1.23,5.31-2.33,5.27-5.33c-1.18-2.44-3.78-3.74-5.84-5.31c0.94-1.71,1.84-3.45,2.77-5.18
	c-1.46-0.25-2.92-0.53-4.31-0.83c0.91-2.99,4.75-3.29,6.02-6.02c2.65-4.13,1.08-9.92-2.75-12.72c-1.9-1.63-4.66-3.14-4.1-6.07
	c-0.61-2.72,1.69-4.39,3.35-6.11c-1.25-1.18-2.5-2.34-3.75-3.46c0.03-2.57-1.23-5.34,0.1-7.75c2.62-4.88,1.22-10.59,0.67-15.8
	c-0.078-1.001-3.34-30.382-4.45-34.94c-0.58,0.14-1.73,0.43-2.31,0.57c-1.631,40.52-8.011,40.635-0.58,52.6
	c-1,0.16-1.96,0.32-2.89,0.48c0.97,1.73,1.92,3.48,2.9,5.23c-2.05,0.53-3.96,1.48-5.36,3.08c1.45,1.51,3,2.96,4.59,4.37
	c0.41,6.22-7.55,8.59-7.26,14.78c-0.56,4.96,3.52,8.94,7.88,10.5c-2.23,2.5-1.95,5.68,0.09,8.2c-2.57,1.95-5.51,4.24-4.99,7.88
	c1.55,0.32,3.14,0.65,4.74,1.01c0.07,3.15,0.89,6.33,0.42,9.47c-3.88,4.48-9.67,6.96-13.25,11.76c-4.24,7.11-3.62,17.03,2.45,22.93
	c3.25,2.51,7.29,3.68,10.97,5.46c0.21,4.02-4.71,4.53-6.44,7.51c1.92,1.33,3.99,2.47,5.92,3.85c2.389,3.535-6.843,4.719-9.64,10.44
	c-1.69,2.58-2.3,6.5-5.76,7.27c-12.71,4.203-34.057,48.716-47.99,62.03c-10.955,12.917-14.906,12.415-24.21,12.79
	c-2.71-0.02-3.74,3.4-6.25,3.75c-3.56,0.29-7.11,0.09-10.64,0.19c-0.14,1.31-0.25,2.63-0.32,3.95c-2.38-1.08-4.65-4.86-7.33-3.4
	c-1.25,2.7-0.24,5.77,0.25,8.56c0.39,3.41,3.49,5.43,5.52,7.91c-37.258,24.397-72.063,53.395-98.715,89.338
	c-25.529,34.428-40.448,76.185-44.734,118.697c-2.147,21.297-1.644,42.877,1.625,64.034c1.568,10.148,3.856,20.054,6.791,29.883
	c1.551,5.193,8.322,18.378,6.714,23.837c-0.76,2.58-3.44,3.84-5.89,4.27c-5.2,1.11-9.3,5.74-10.14,10.92
	c0.15,2.48,1.34,4.73,2.1,7.07c-5.02,0.71-8.36-3.53-11.76-6.44c-2.03-1.71-3.47-6.14-6.73-4.36c-4.61,4.86-10.19,8.63-15.17,13.07
	c-5.42,3.35-5.7,10.41-10.16,14.63c-2.36-3.02-4.22-6.36-5.31-10.03c-1.51-5.35-11.765-9.778-16.63-16.52
	c-2.39-1.09-5.84-0.96-7.58,1.27c-4.69,5.03-10.29,9.04-15.5,13.49c-2.13,1.63-2.5,4.38-3.28,6.76c-0.34,2.12-2.56,2.97-3.96,4.29
	c-1.82-2.34-3.99-4.56-4.74-7.5c-4.498-11.499-0.475-2.943-15.21-15.82c-1.8-1.53-3.01-4.74-5.85-3.95c-3.58,0.7-5.05,4.4-7.62,6.52
	c-3.5,2.87-7.34,5.31-10.65,8.4c-3.79,3.43-3.46,9.42-7.92,12.3c-1.51-2.24-3.09-4.41-4.63-6.59c-1.88-2.68-1.97-6.36-4.25-8.73
	c-14.38-9.599-9.414-9.396-10.13-19.94c-2.352-34.653-2.401-69.41-1.857-104.123c0.277-17.649,0.714-35.294,1.081-52.941
	c0.164-7.92,1.602-17.011,0.693-24.809c-0.615-5.275-4.778-8.924-5.016-14.067c-0.19-4.12,4.38-6.34,5.17-10.04
	c-0.8-4.84-6.57-7.71-6.09-12.94c0.174-59.593,0.08-61.097-0.64-67.74c1.16-1.26,2.34-2.51,3.55-3.74
	c-1.23-1.99-2.61-3.88-4.02-5.72c6.58-5.08,8.29-13.59,11.01-20.99c2.41-8.33,7.32-15.56,10.83-23.42
	c-3.61-4.408-1.933,1.5-2.8-18.62c-13.218,5.387-9.628-6.835-10.5-14.37c-0.48-4.16-0.73-8.43,0.6-12.47
	c1.56-4.47,0.13-9.19,1.01-13.74c2.48-0.4,5.52,0.09,7.56-1.7c1.42-2.24,3.03-4.65,3.31-7.34c-2.86-2.32-7.28-1.62-10.01-4.04
	c-1.37-3.6-3.55-7.05-3.66-10.99c-1.045-21.172-19.636-22.773-27.57-36.86c-2.29-5.6-0.7-11.76-1.8-17.58
	c-3.768,0.523-1.873,5.445-3.43,17.72c-2.929,5.343-8.289,8.078-12.443,12.258c-6.825,6.869-13.769,16.289-14.017,26.282
	c-0.09,3.62-1.6,6.96-2.62,10.38c-2.54,0.7-5.22,1.11-7.54,2.39c-1.7,1.96-2.4,4.53-3.03,6.98c3.56,1.12,7.19,2.04,10.87,2.8
	c0.42,3.14,0.37,6.32,0.38,9.49c-0.09,5.06,2.04,9.85,2,14.92c0.04,5.62,0.04,11.25-0.09,16.87c-1.28,0.42-2.52,0.86-3.75,1.3
	c-4.23-5.48-5.76-12.39-8.85-18.47c-31.678-63.318-49.533-79.823-103.9-124.07c-56.641-36.62-34.277-21.017-60.28-35.74
	c0.06-1.48,0.16-2.95,0.26-4.43c-1.44-0.2-2.86-0.39-4.26-0.57c1.55-2.61,3.76-5.16,3.69-8.37c-4.92-0.55-9.86-1.08-14.61-2.47
	c0.91-2.09,1.83-4.27,1.59-6.62c-7.26-0.85-14.83,0.27-21.8-2.33c-1.2-1.34-1.01-3.44-2.24-4.72c-2.19,0.16-4.35,0.71-6.54,0.61
	c-2.3-0.9-4.2-2.55-5.97-4.19c-52.154-52.474-41.166-60.102-69.44-80.58c-4.07-2.99-9.15-3.99-13.41-6.59
	c-2.77-2.61-4.26-6.35-7.23-8.76c-2.81-1.87-6.75-2.49-8.32-5.83c1.84-2.68,5.66-3.45,8.35-5.27c-0.02-5.59-8.86-5.56-8.38-11.32
	c14-1.06,24.36-16.4,20.6-29.84c-4.279-14.139-17.51-13.8-20.37-23.43c0.55-1.03,1.12-2.07,1.71-3.1c-0.69-1.34-1.35-2.69-1.98-4.04
	c1.29-3.65,5.02-5,8.26-6.46c-0.05-1.06-0.13-2.12-0.22-3.17c-2.55-2.64-5.93-4.25-8.8-6.48c1.04-1.33,2.09-2.66,3.15-4
	c-1.26-1.25-2.51-2.48-3.77-3.69c0.01-0.59,0.03-1.18,0.08-1.77c13.842-5.012,11.738-19.805-1.23-25.94
	c-0.14-2.47-1.26-5.12-0.27-7.5c1.27-0.98,2.76-1.62,4.19-2.39c0-3.42-3.66-4.67-5.83-6.61c1.67-2.34,1.59-5.05-0.29-7.25
	c4.234-13.249,4.565-2.925-4.51-68.22c-0.59-0.17-1.78-0.5-2.37-0.67c-0.024,1.007-3.356,42.663-3.22,46.14
	c0.603,19.826-1.525,10.526,4.16,23.54c-0.83,0.24-2.49,0.73-3.32,0.98c0.47,2.07,1.78,3.76,3.12,5.37c-2,1.11-3.99,2.22-5.94,3.37
	c0.02,0.61,0.06,1.82,0.08,2.42c1.45,1.2,2.93,2.36,4.44,3.51c-0.05,2.38,0.4,4.83-0.18,7.16c-2.46,2.85-6.39,4.51-7.7,8.28
	c-1.34,4.04-1.02,8.79,1.34,12.42c1.79,3.16,5.33,4.55,8.32,6.34c-1,1.43-2.19,2.7-3.42,3.91c0.92,1.79,1.9,3.55,2.89,5.32
	c-2.93,2.03-6.57,3.44-8.54,6.55c0.37,3.34,4.41,3.36,6.53,5.16c2.41,3.22-0.7,7.55,1.99,10.77
	c-5.874,9.374-2.867,3.551-16.59,14.06c-10.99,12.688-4.447,35.375,14.8,39.32c0.01,0.56,0.01,1.68,0.02,2.24
	c-3.38,2.27-7.37,4.16-9.09,8.1c2.73,1.46,5.49,2.89,8.2,4.42c-0.07,0.55-0.21,1.66-0.28,2.21
	c-9.838,4.082-12.757,11.889-17.34,14.96c-24.945,14.293-28.896,24.24-39.45,39.58c-2.55,4.06-5.79,7.63-8.26,11.73
	c-6.09,11.13-15.66,19.69-23.63,29.4c-2.94,3.72-6.81,6.53-10.09,9.92c-6.876,6.347-7.778,3.106-25.25,4.08
	c0.75,2.25,1.65,4.45,2.45,6.69c-6.23,0.14-12.37,1.24-18.58,1.45c0.92,2.64,2.86,4.79,3.61,7.51c-3.18,0.34-6.37,0.63-9.47,1.36
	c1.21,2.5,2.75,4.83,4.42,7.06c-1.245,1.044-56.784,29.471-81.87,54.15c-2.145,2.227-24.812,23.13-24.82,23.14
	c-9.864,13.235-16.5,17.027-19.48,25.67c-0.8,2.28-2.79,3.82-4.22,5.68c-1.73,2.01-2.63,4.57-4.21,6.68
	c-1.94,1.8-4.07,3.38-5.95,5.24c-2.17,2.48-5.52-0.02-8.14-0.28c-2.937-13.341,0.434-15.09-6.93-27.05
	c-3.254-4.817-15.656-11.509-22.76-22.03c-0.95-6.28-0.42-13.09-3.62-18.8c-0.15,6.35-0.51,12.7-0.68,19.04
	c-3.59,2.79-5.11,7.77-9.89,8.99c-0.8,5.19-6.9,5.63-9.64,9.36c-9.784,11.92-6.586,9.531-10.24,29.77
	c-3.67,1.33-7.98,1.35-11.28,3.33c0.18,2.42,0.21,4.98,1.21,7.24c3.01,1.86,6.75,1.94,10.1,2.92c1.72,5.89,0.81,12.06,1.91,18.03
	c0.67,5.52,0.02,11.08,0.17,16.62c0.07,3.26-1.61,6.21-4.76,7.26c-1.42-1.11-2.84-2.2-4.26-3.26c-1.72,4.69-0.13,9.79-1.4,14.57
	c-0.5,2.39-1.84,4.73-1.21,7.23c0.53,1.91-0.69,3.6-1.35,5.3c6.302,4.596,2.822-0.049,15.11,30.02c1.3,3.21,3.45,5.96,5.7,8.57
	c-0.95,1.15-1.95,2.27-2.69,3.57c0.47,2.48,3.27,4.09,3,6.83c0.15,46.197-0.479,47.718,0.6,53.46c1.09,4.6-1.11,9.23,0.08,13.84
	c0.91,4.64-4.06,7.19-5.72,10.89c0.51,4.39,4.03,8.15,3.16,12.87c1,4.7-4.77,6.81-4.42,11.431
	c2.456,32.438,2.747,64.99,2.731,97.506c-0.016,30.638-2.409,62.034,1.169,92.453c0.24,2.04,0.72,4.18,0.13,6.21
	c-0.96,3.25-4.76,3.92-6.86,6.22c-2.3,2.41-4.99,4.37-7.43,6.61c-2.444,5.362,0.079,6.9-9.52,12.86c-4.47-3.07-5.22-8.78-8.39-12.84
	c-4.83-4.71-10.43-8.49-15.83-12.46c-2.41-0.634-1.569-0.615-20.42,12.29c-1.14,2.16-1.1,4.69-1.95,6.95
	c-2.54,2.53-4.72,5.41-5.98,8.8c-4.65-5.37-5.95-13.13-11.8-17.56c-10.322-6.818-12.718-12.631-18.01-10.11
	c-3.94,3.1-7.04,7.32-11.64,9.54c-2.15,0.82-3.27,2.91-3.98,4.97c-1.55,4.91-5.66,8.38-7.47,13.19
	c-4.14-4.93-6.83-10.86-10.34-16.21c-4.24-4.21-9.45-7.26-14.15-10.9c-1.27-1.18-3.1-1.25-4.69-0.94
	c-4.99,2.65-8.57,7.67-14.06,9.34c0.29-2.79,1.45-5.83-0.13-8.43c-3.903-9.232-16.474-12.279-23.01-0.86
	c-1.79,3.23-0.52,6.88-0.13,10.3c-14.794-9.395-13.308-14.293-21.02-7.2c1.54-3.21,4.66-6.16,4.06-9.99
	c-0.82-2.43-2.77-4.23-3.92-6.47c-0.44-2.27,0.34-4.52,1.01-6.65c7.76-20.85,12.21-42.89,13.91-65.04
	c0.609-65.069-6.326-104.997-49.68-167.34c-6.322-9.669-31.894-36.309-39.67-43.33c-51.939-43.073-45.515-35.019-61.97-47.21
	c4.703-5.74,4.84-3.619,4.02-11.66c-1.82-0.29-3.63-0.54-5.44-0.77c-0.17-1.57-0.32-3.13-0.46-4.68c-3.74,0.01-7.48,0-11.19-0.37
	c-0.35-1.58-0.67-3.15-0.97-4.72c-4.7,0.84-9.47,1.4-14.23,0.92c-1.04-1.38-1.92-2.92-3.28-3.99
	c-5.411-2.815-6.458,2.162-30.92-33.09c-17.25-24.359-16.422-33.286-33.03-39.99c-4.23-1.75-5.36-6.65-8.07-9.89
	c-2.88-2.36-7.28-3.39-8.26-7.45c2.03-0.94,4.05-1.91,6.08-2.86c0.03-0.58,0.07-1.74,0.1-2.32c-2.71-1.51-5.42-3.08-7.58-5.33
	c2.32-2.43,5.85-2.46,8.74-3.8c9.421-4.461,11.495-17.177,6.11-24.42c-3.06-6.06-11.6-7.29-13.63-14.02
	c-0.14-3.19-2.64-7.85,1.22-9.74c1.16-1.03,4.1-1.58,2.93-3.65c-1.42-2.21-3.62-3.72-5.52-5.47c0.52-1.32,1.06-2.64,1.61-3.94
	c-0.96-1.3-1.92-2.58-2.87-3.86c2.58-1.29,6.24-1.68,7.4-4.72c4.162-8.061-4.157-11.831-7.15-15.77c-1.19-4.03,0.9-7.62,3.79-10.26
	c-1.57-1.22-3.16-2.41-4.75-3.57c-0.927-6.968,3.644-10.494,1.14-24.19c-5.74-32.659-1.39-27.801-5.67-36.94
	c-1.84,1.62-1.53,4.19-1.72,6.39c-0.06,5.03-1.27,9.97-1.08,15.01c0.18,8.41-2.1,16.64-2.06,25.03c-0.28,3.02,1.68,5.45,2.7,8.12
	c0.15,2.3-0.28,4.59-0.51,6.87c-1.53,0.87-3.03,1.79-4.47,2.79c1.45,1.77,3.36,3.28,4.3,5.42c0.22,1.78,0.03,3.57-0.05,5.36
	c-2.59,2.15-6.62,3.58-6.95,7.43c-0.822,5.059-1.964,6.464,7.08,13.23c-0.64,1.02-1.3,2.03-1.94,3.06c0.52,1.54,1.07,3.07,1.63,4.61
	c-2.22,1.98-5.93,3.25-5.89,6.72c2.06,1.09,4.44,1.86,6.01,3.7c0.21,2.76-0.03,5.56-0.41,8.3c-3.85,4.82-10.01,7.15-13.65,12.14
	c-4.7,6.85-3.65,17.21,2.91,22.54c3.2,3.76,8.74,3.94,11.9,7.71c-2.36,1.75-5.01,3.03-7.62,4.32c1.25,2.75,3.93,4.18,6.39,5.69
	c-2.62,3.99-7.74,5.01-10.39,8.93c-3.94,4.73-8.57,8.88-13.68,12.31c-10.33,8.4-15.27,21.27-23.87,31.16
	c-16.857,22.232-4.639,11.002-22.51,29.57c-1.8,0.28-1.86-1.74-2.47-2.89c-5.75,1.47-11.83,0.27-17.49,2
	c0.04,1.14,0.09,2.28,0.16,3.44c2.16,1.4,4.77,3.02,3.69,6.03c-4.47,0.86-9.03,0.37-13.43-0.55c-0.33,1.54-0.65,3.09-0.98,4.64
	c-3.37,0.02-6.7-0.41-10.04-0.75c-0.22,1.27-0.44,2.56-0.64,3.85c-1.62,0.14-3.23,0.29-4.82,0.45c0.55,4.58,2.32,8.87,5.19,12.5
	c-3.117,2.037-28.158,16.591-61.55,43.8c-43.292,39.389-58.39,58.313-81.2,117.74c-14.695,46.92-10.718,65.917-11.34,81.71
	c-0.59,9.38,1.8,18.55,2.24,27.87c5.531,37.873,11.624,44.522,13.91,57.98c-1.77,2.47-4.39,4.87-4.23,8.16
	c-0.15,3.55,4.02,5.49,4.05,9.05c0.2,7.32-0.01,14.67,0.05,22.01c-8.61-6.15-15.89-14.55-26.23-17.95
	c-3.531-1.304-7.141,7.117-18.59,13.09c-3.14,1.46-2.77,5.49-3.57,8.36c-1.26,0.89-2.5,1.81-3.73,2.74
	c-1.26-2.47-2.02-5.24-3.7-7.45c-1-0.821-26.732-24.058-30.48-15.19c-4.423,7.286-14.584,8.953-15.39,15.59
	c-0.31,3.05-1.84,5.82-4.78,7.01c-0.82-2.79-1-6.35-3.97-7.78c-2.777-1.378-15.535-15.885-28.31-16.66
	c-2.82,3.34-6.32,5.97-9.41,9.04c-2.23,2.2-5.51,3.03-7.56,5.42c-1.8,3.21-0.5,7.75-4.02,10c-1.15-2.35-1.79-5.01-3.53-7
	c-5.23-4.44-10.85-8.57-15.45-13.68c-0.71-12.18-0.05-24.45-0.32-36.66c-0.51-2.64,1.69-4.24,3.06-6.13
	c-0.79-2.72-3.73-4.66-3.15-7.81c-0.56-4.23,2.7-7.38,3.94-11.14c5.973-18.817,16.907-21.555,24.88-28.27
	c2.11-3.28-0.71-6.76-0.15-10.23c0.5-3.97,0.74-7.98,0.11-11.94c-1.44,0.03-2.86,0.1-4.29,0.18c-0.61-1.2-1.23-2.39-1.83-3.56
	c-1.17,0.55-2.32,1.13-3.47,1.73c-0.74-1.52-1.46-3.04-2.19-4.54c-1.13,0.12-2.26,0.25-3.39,0.4c-0.57-1.24-1.15-2.47-1.73-3.67
	c-4.78,0.67-9.51,2.35-14.38,1.79c-0.89-13.23-0.08-26.53-0.41-39.78c-0.31-5.55,2.15-10.67,2.9-16.07
	c0.61-7.11-0.47-14.29,0.52-21.37c28.395-6.173,23.874-3.742,27.12-6.4c-4.91-3.73-10.32-6.73-15.34-10.28
	c-3.12-2.39-7.77-1.49-10.48-4.51c-1.59-1.52-1.47-3.9-2.23-5.81c-1.07-1.45-2.62-2.43-3.95-3.6c1.57-11.74,0.08-24.2-5.83-34.61
	c-10.184-17.033-25.138-26.01-26.71-27.31c-1.83-1.18-0.97-3.99-2.65-5.28c-3.02-2.13-7.31-1.37-10.1-3.93
	c-2.69-2.19-3.89-5.53-5.66-8.39c-1.79-2.83-5.42-3.92-6.89-7.01c1.23-1.39,3.4-2.42,3.43-4.51c0.35-2.22-1.92-3.48-2.65-5.34
	c-0.63-2.17-1.02-4.39-1.57-6.56c-0.69,0-2.08,0-2.77-0.01c-0.87,2.64-1.18,5.4-1.24,8.17c-0.98,0.35-1.97,0.69-2.86,1.23
	c-0.04,2.83,2.1,5.04,3.24,7.49c-3.02,2.41-6.12,4.93-7.93,8.42c-1.45,2.15-2.42,4.92-4.73,6.28c-3.86,0.63-7.88,1.09-11.08,3.57
	c0.14,1.03,0.3,2.08,0.44,3.13c-1.9,0.584-28.286,16.624-33.23,38.5c-2.66,6.6-1.31,13.76-1.89,20.66
	c-5.05,2.05-7.27,8.66-4.9,13.47c-8.71,2.38-17.66,3.67-26.45,5.66c-0.14,0.56-0.42,1.69-0.55,2.26
	c18.911,9.906,13.766,9.02,27,11.44c0.25,5.92-0.05,11.85,0.06,17.78c-0.04,4.85,3.08,9.07,3.03,13.93
	c0.071,42.389,0.367,38.457-1.33,46.29c-2.24-0.63-4.15-1.97-6.01-3.3c-0.65,3.21-3.46,5.01-6.62,4.98
	c-1.98-0.56-3.82-1.48-5.75-2.16c-0.64,1.36-1.25,2.75-1.84,4.16c-3.81,0.59-7.35-0.99-10.98-1.82c-0.07,5.57,1.77,11.42-0.61,16.73
	c-4.072,9.489,15.846,8.856,25.51,35.77c1.48,4.4,4.34,8.54,3.73,13.41c0.47,2.64-1.77,4.24-3.12,6.15c0.5,2.46,3.31,4.06,3.01,6.8
	c-0.08,15.83,0.19,31.68-0.15,47.52c-9.075,3.007-8.887,6.901-10.34,12.79c-2.54-1.39-3.34-4.48-5.73-6.04
	c-11.684-8.222-1.735-4.544-26.66-18.06c-12.735,14.885-13.93,12.34-17.76,16.17c-1.76,3.23-2.07,7.23-4.88,9.86
	c-3.212-6.862,2.757-1.175-22.67-23.04c-1.27-1.22-1.79-2.96-2.61-4.45c-1.29-2.89-4.02-4.69-5.87-7.17
	c-0.77-2.99-0.32-6.11-0.2-9.15c1.4-1.08,2.79-2.18,4.14-3.32c-1.69-2.16-4.55-3.99-4.27-7.06
	c0.035-136.636-1.64-116.089,4.25-122.96c-1.69-2.16-4.5-3.98-4.31-7.04c-0.04-2.73-0.39-5.68,0.93-8.18
	c4.22-8.05,6.24-17.49,12.86-24.11c4.23-4.1,8.06-8.8,13.26-11.73c2.63-1.67,6.15-2.65,7.13-5.98c2-2.88-1.33-5.74-0.79-8.76
	c0.62-5.21,1.42-10.63,0.1-15.78c-1.91-1.26-3.78,0.61-5.52,1.3c-1.02-2.2-1.85-4.5-3.11-6.57c-1.56-0.2-2.76,1.22-4.08,1.83
	c-0.66-0.6-1.32-1.2-1.97-1.8c1.2-1.12,2.42-2.23,3.61-3.36c-5.86-6.443-18.102-10.091-25.25-10.08
	c-1.477-4.008-1.221-2.191-1.12-42.83c-0.17-5.22,3.27-9.73,3.05-14.93c0.203-17.8-1.411-25.173,2.98-25.05
	c10.16-2.16,20.17-4.99,30.28-7.34c-1.369-3.804-12.632-8.82-20.31-14.65c-3.54-2.89-8.54-2.29-12.3-4.7
	c-0.76-1.87-0.63-3.96-1.1-5.89c-1.3-2.11-3.55-3.36-5.49-4.78c-0.779-5.933,0.929-11.759,0.23-17.746
	c-0.742-6.351-2.773-12.706-5.353-18.533c-6.747-15.242-19.437-28.026-33.398-36.952c-2.42-1.21-2.5-4.16-3.82-6.22
	c-3.81-2.67-8.8-2.76-12.71-5.24c-4.2-3.39-5.15-9.27-9.3-12.69c-1.83-1.83-4.84-2.94-5.01-5.89c1.51-1.49,3.77-2.92,3.37-5.38
	c0.46-3.37-4.05-4.86-3.52-8.22c-0.26-2.57,0.48-5.05,1.85-7.21c-0.68-1.84-1.55-3.64-1.94-5.57c-0.5-5.09,1.64-10.38-0.09-15.31
	c-0.52-0.23-1.55-0.69-2.07-0.93c-1.07,3.75-2.33,7.57-1.95,11.52c0.2,2.86-0.59,5.68-2.21,8.05c1.65,3.84,1.38,8,1.54,12.08
	c-1.24,0.61-2.56,1.13-3.63,2.02c-1.07,3.8,2.14,6.68,4,9.59c-13.14,8.081-9.405,12.599-15.51,16.66c-4.2,1.34-9,0.56-12.83,3.1
	c-1.79,1.16-1.33,3.58-1.71,5.39c-7.896,3.224-43.342,26.158-42.08,60.86c-0.06,3.24,1.14,6.54-0.02,9.69
	c-1.83,0.23-3.65,0.48-5.46,0.79c0.2,4.64-2.64,8.47-3.2,12.94c-8.32,1.52-16.29,4.34-24.54,6.14c-2,0.68-5.13,0-5.97,2.46
	c2.04,2.8,5.29,4.26,8.16,6.04c7.87,4.51,15.46,10.3,24.71,11.52c1.03,7.3-0.32,14.72,0.71,22.02c1.731,13.17,3.25-13.588,2.6,67.24
	c-1.54,0.39-3.07,1.38-4.71,1.08c-1.86-1.09-3.54-2.55-5.66-3.12c-0.63,1.64-1.26,3.3-1.91,4.95c-2.14,0.42-4.24,1.12-6.42,1.2
	c-1.45-0.62-2.39-1.98-3.53-3c-0.57,0.02-1.72,0.05-2.3,0.07c-0.35,1.48-0.69,2.98-1.05,4.48c-3.91,1.52-8.13,1.6-12.27,1.57
	c-1.86,4.63-1.06,9.67-0.76,14.51c0.31,2.18-1.25,4.07-1.25,6.23c0.66,2.08,1.5,4.37,3.36,5.69
	c25.281,15.729,28.452,35.12,31.41,41.62c1.91,3.86,1.14,8.3,0.99,12.44c-1.66,1.13-3.25,2.41-4.26,4.2
	c1.74,2.17,4.67,4.04,4.41,7.19c-0.07,39.89,0.14,79.79-0.11,119.69c-1.35,0.93-2.71,1.86-4.06,2.81c0.87,2.25,2.52,4.01,3.98,5.88
	c0.33,2.69,1.05,6.15-1.3,8.15c-9.765,9.738-7.442,4.144-7.51,82.5c-0.07,3.91,0.31,7.85-0.21,11.74c-1.66,3.84-4.49,7-6.82,10.43
	c0.04,1.77,1.5,3.05,2.37,4.48c1.77,2.13,1.39,5.12,2.49,7.55c0.83,2.14,2.66,4.14,2.03,6.61c-1.345,6.676-1.067,32.871-0.38,37.93
	c0.54,3.26-0.49,6.54-0.02,9.82c0.92,4.87-0.68,9.79,0.28,14.67c0.04,11.58-0.97,23.22,0.17,34.82c0.39,5.08-1.36,10.06-0.75,15.16
	c0,0,1.002,159.308,0.84,188.79h3290.84c-0.008-5.919-1.136-306.614-0.55-311.67c2.25-4.79,2.21-10.54,5.79-14.67
	c-1.14-4.49-4.25-7.93-7.38-11.14c1.27-0.37,2.58-0.72,3.93-1.05c0.06-0.39,0.17-1.16,0.23-1.54c-1.26-0.7-2.51-1.4-3.55-2.32
	c-0.99-7.41,0.34-14.93-0.63-22.34c-0.99-6.15-0.97-12.44-0.32-18.61c-0.03-2.43,1.96-3.99,3.11-5.91
	c-0.04-1.97-1.52-3.41-2.59-4.87c-0.03-2.72-0.92-5.41-0.23-8.11c1.18-6.64-0.36-13.28-1.59-19.79c-1.33-3.59-4.73-5.77-8.03-7.3
	c-0.04-4.167,1.488-8.005,3.635-11.503c-0.524,0.854-3.562-7.633-3.595-7.786c-1.593-7.382-0.435-16.24-0.59-23.752
	c0-29.483-4.07-59.93-1.311-89.329c1.54-2.19,4.5-3.6,3.88-6.77c-1.36-0.67-2.65-1.34-3.92-1.99c-0.24-4.45-0.72-9.1,1.07-13.32
	c2.87-7.57,4.36-15.97,9.67-22.35c4.16-4.81,7.81-10.32,13.53-13.47c3.47-1.72,6.28-5.23,6.26-9.15
	C3364.52,728.66,3366.65,721.22,3365.89,714.22z M88.97,696.85c-1.31,0.77-2.63,1.52-3.95,2.29c-1.512-3-0.939,1.032-1.04-48.17
	c-0.13-1.51,0.41-2.92,1.12-4.2C89.844,653.374,89.292,646.838,88.97,696.85z M136.96,693.96c-7.91,0.06-15.82,0.11-23.73-0.02
	c-4.372-7.331-3.099,3.758-3.25-47.96c0.31-4.05,0.24-8.71,3.18-11.85c1.34-1.73,0.3-4.45,2.04-5.96
	c3.068-3.538,13.314,5.454,15.45,8.21c2,5.12,1.62,10.84,1.65,16.23C137.92,660.6,137.151,652.084,136.96,693.96z M147.17,693.28
	c0.763-4.324-1.781-26.888,1.16-35.92c0.8-1.31,2.44-1.68,3.66-2.48c0.05,10.05-0.04,20.11,0.05,30.16
	C152.34,688.35,150.37,692.16,147.17,693.28z M166.21,694.85c-3.854-6.173-3.695,3.316-3.15-54.79c-0.08-4.34,3.66-6.84,6.13-9.83
	c5.95,1.48,12.44,4.79,14.4,11.04c0.23,1.76-0.95,3.55-0.19,5.29c1.98,6.44,5.62,12.48,5.6,19.41
	C188.828,707.414,193.821,696.163,166.21,694.85z M200.1,682.94c0.34,3.36-0.07,6.72-0.19,10.08l-0.91-0.05
	c0.07-10.43-0.16-20.87,0.11-31.3c2,3.07,1.89,6.89,1.09,10.33C201.29,675.65,199.64,679.25,200.1,682.94z M214.93,703.12
	c-5.338-0.105-3.887,3.353-3.92-51.11c-0.33-1.55,0.8-2.46,1.88-3.3C215.094,653.744,215.543,652.954,214.93,703.12z
	 M318.72,1005.89c-1.31,0.1-2.61,0.15-3.92,0.14c0.56-2.65,3.78-3.14,5.37-5.07C319.89,1002.65,320.47,1004.83,318.72,1005.89z
	 M341,803c-0.07,9.1,0.14,18.21-0.1,27.32c-0.41-0.43-1.24-1.28-1.66-1.71c-0.75-4.12-1.22-8.35-1.1-12.54
	c0.84-5.08-0.94-10.2,0.25-15.26c1.711-7.348-1.733-10.173,1.31-14.03C341.63,791.98,340.9,797.57,341,803z M351.98,828.2
	c-0.48-0.36-1.45-1.08-1.93-1.44c-0.389-34.335-0.664-36.67,2.78-37.02C351.63,802.52,352.08,815.37,351.98,828.2z M379.96,825.97
	c-4.95,0.17-9.97-0.39-14.87,0.61c-5.63-6.376-3.734,3.832-4.12-38.61c-0.2-5.91,2.73-11.25,4.24-16.82
	c3.49-2.32,6.3,1.93,8.55,4.09c4.15,4.11,1.15,10.34,2.61,15.3C380.783,795.62,380.23,795.609,379.96,825.97z M396.55,813.44
	c0.95,4.39-0.32,8.91-2.92,12.5c-1.87-0.14-4.39,0.83-5.48-1.23c-0.4-8.23-0.01-16.5-0.18-24.74c-0.31-3.09,1.22-5.82,2.46-8.51
	c0.65-2.3,1.15-4.66,2.52-6.66c-0.78-2.9-0.13-5.88,1.92-8.09c3.873,8.715,0.758,10.306,1.75,14.66
	C398.15,798.72,394.89,806.09,396.55,813.44z M407.27,826.77c-3.174-7.068-2.078,1.352-2.3-41.8c-0.13-2.75,0.64-5.49,2.28-7.7
	c1.33-1.83,2.01-4.34,4.35-5.14c2.03,2.09,5.11,3.3,6.12,6.23c1.15,2.68-0.1,5.8,1.53,8.36c4.55,9.01,4.58,19.56,2.76,29.28
	C424.989,832.737,421.794,827.618,407.27,826.77z M431.08,829.2c-0.703-30.345-0.601-38.304,3.85-38.4
	c0.16,10.74,0.02,21.48,0.09,32.22C435.05,825.49,434.03,829.04,431.08,829.2z M445.59,831.32c-0.36-0.14-1.06-0.43-1.42-0.57
	c-0.4-13.97-0.09-27.97-0.15-41.96c0.48,0.37,1.45,1.1,1.93,1.46C445.86,803.93,446.43,817.65,445.59,831.32z M473.98,1021.82
	c-1.2-3.62,3.56-4.57,3.48-7.99c2.8,0.64,4.18,3.39,3.59,6.11C481.68,1023.78,474.67,1026.09,473.98,1021.82z M481.96,1011.99
	c-2.75-0.68-5.65-0.83-8.2-2.12c1.13-4.42,5.5-6.91,9.12-9.15C482.75,1004.43,483.97,1008.61,481.96,1011.99z M535,1021.79
	c-1.67,1.65-3.84,2.51-6.03,3.21c-1.24-2.23-1.96-5.84,0.56-7.44c1.33-0.8,1.47-2.4,1.93-3.73
	C535.29,1014.6,535.35,1018.66,535,1021.79z M535.96,1011.97c-2.61-0.7-5.3-0.99-7.98-1.17c0.01-1.21,0.02-2.41,0.04-3.6
	c2.85-2.31,6.25-3.83,8.98-6.3C536.71,1004.55,537.95,1008.65,535.96,1011.97z M587.81,1022.99c-1.94,0-3.89,0-5.82,0.01
	c0-1.6,0.01-3.17,0.02-4.74c0.7-0.12,2.12-0.38,2.82-0.5c0.12-1.35,0.25-2.68,0.4-4C589.77,1014.56,589.71,1019.76,587.81,1022.99z
	 M589.95,1011.97c-2.66-0.72-5.39-0.99-8.12-1.19c1.015-7.201,2.642-3.164,9.08-11.05C590.7,1003.75,592.04,1008.29,589.95,1011.97z
	 M1178,969.09c2.89,0.23,5.43-1.36,8.06-2.29c-0.76,2.21-0.5,5.16-2.67,6.59c-2.61,1.77-3.47,4.93-4.74,7.65
	c-5.09-3.38-5.99-9.76-9.76-14.21C1171.88,967.71,1174.8,969.17,1178,969.09z M1184.19,997.08c-2.84,0.62-4.9-1.44-4.27-4.26
	C1182.16,993,1183.98,994.83,1184.19,997.08z M1172.21,1003.04c1.31,0.01,2.48,0.73,3.73,1.14c0.04,1.92,0.08,3.86,0.12,5.81
	c-1.77-0.64-3.51-1.3-5.17-2.13C1171.08,1006.18,1170.6,1004.15,1172.21,1003.04z M1183.64,1021.7c-3.52,0.54-7.06,1.19-10.62,0.98
	c-1.04-3.1-1.25-6.37-1.91-9.54c0.39-0.29,1.18-0.88,1.57-1.18c0.53,1.32,1.08,2.64,1.63,3.99c2.19,0.05,4.39,0.07,6.61,0.09
	c0.56-1.32,1.01-2.67,1.42-4.03c1.2,0.72,2.43,1.43,3.67,2.16C1186,1016.86,1186.72,1020.39,1183.64,1021.7z M1186.95,1009.99
	c-2.68-0.63-5.44-0.93-8-1.94c0.96-4.56,5.59-6.36,8.59-9.4C1187.57,1002.39,1189.1,1006.6,1186.95,1009.99z M1238.25,997.1
	c-3.08,0.4-3.74-3.12-4.49-5.3C1235.73,993.06,1237.35,994.91,1238.25,997.1z M1225.01,1001.87c1.76,0.91,3.44,2.01,4.96,3.33
	c0,1.25,0.02,2.5,0.06,3.77c-1.69,0.01-3.35,0.02-5,0.04C1224.96,1006.62,1224.95,1004.24,1225.01,1001.87z M1240,1019.8
	c-2.32,2.37-5.75,2.58-8.67,3.78c-1.44-0.9-3.16-1.39-4.38-2.55c-1.17-2.64-1.34-5.57-1.88-8.36c1.52,0.56,2.38,1.97,3.28,3.25
	c2.5,0.13,5.02,0.12,7.54,0.06c0.05-1.37,0.11-2.73,0.19-4.08c1.3,0.75,2.61,1.5,3.93,2.27
	C1240,1016.04,1239.98,1017.91,1240,1019.8z M1241.94,1010.08c-2.97-0.63-5.95-1.12-8.96-1.28c0-1.2,0.02-2.39,0.06-3.57
	c2.68-2.22,5.52-4.35,8.87-5.47C1242.07,1003.19,1242.05,1006.63,1241.94,1010.08z M1291.14,997.11c-1.47-0.16-3.17,0.07-4.02-1.38
	c-0.13-1.32-0.18-2.63-0.15-3.93C1288.4,993.52,1289.81,995.28,1291.14,997.11z M1278.99,1004.01c0.73-0.01,2.2-0.03,2.93-0.04
	c1,1.93,1.42,4.09,1.91,6.21c-1.66-0.26-3.71,0.2-4.73-1.46C1278.91,1007.15,1278.97,1005.56,1278.99,1004.01z M1292.87,1020.72
	c-2.04,2.75-6.55-0.25-8.49,2.89c-1.89,0.71-3.79-1.79-5.33-2.82c-0.1-2.67-0.13-5.35,0.01-8.01c2.19,0.1,2.15,2.63,3,4.16
	c1.98-0.57,4.06-0.84,6.1-0.24c0.68-1.51,0.86-3.15,1.03-4.76c1.25,0.74,2.51,1.47,3.79,2.22
	C1293,1016.33,1293.16,1018.53,1292.87,1020.72z M1294.94,1011.18c-2.59-1.03-5.25-2.78-8.07-1.45c-1.83-2.03-0.46-5.07,1.8-6.05
	c2.36-1.27,4.33-3.09,6.32-4.85C1295.04,1002.94,1295.05,1007.06,1294.94,1011.18z M1341.2,992.36c1.54-0.26,2.75,2.23,2.3,3.55
	C1341.91,996.29,1340.62,993.64,1341.2,992.36z M1332.03,1001.82c1.64,0.2,3.24,0.7,4.77,1.4c-0.1,1.85,1.84,4.32-0.03,5.68
	c-1.62-0.23-3.18-0.74-4.74-1.1C1331.99,1005.8,1331.98,1003.8,1332.03,1001.82z M1347.89,1018.68c-2.22,2.53-5.82,3.02-8.51,4.89
	c-1.98-1.14-4.08-2.01-6.16-2.87c0.21-3.32-2.22-6.92-0.13-9.92c1.14,1.5,2.01,3.2,2.87,4.91c2.26-0.47,4.57-0.7,6.89-0.86
	c0.1-1.38,0.22-2.74,0.37-4.09C1346.56,1011.79,1349.08,1015.11,1347.89,1018.68z M1349.01,1009.92c-2.47-1.38-5.2-2.08-8-2.13
	c-0.03-1.61-0.04-3.22-0.02-4.81c1.28,0.32,2.59,0.68,3.91,1.03c0.76-1.75,1.49-3.53,2.3-5.25
	C1350.59,1001.29,1348.44,1006.27,1349.01,1009.92z M1369.97,566.49c-2.36,0.19-4.69,0.65-6.97,1.25c-1.63-4.16-1.53-9.04,0.83-12.9
	c1.61-2.44,0.77-5.58,2.24-8.08c0.94,0.81,1.88,1.63,2.83,2.46c0.22,2.88-0.51,6.09,1.29,8.61
	C1371.77,560.46,1371.09,563.81,1369.97,566.49z M1390.65,565.78c-4.29,0.47-9.11,0.96-12.7-1.93c-0.38-4.33,1.35-8.36,2.47-12.44
	c0.85-2.33,3.68-2.54,5.66-3.46c3.806,2.185,4.612,0.83,7.55,13.4C1394.38,563.4,1391.82,564.53,1390.65,565.78z M1402.21,567.23
	c-0.87-1.7-2.21-3.31-2.28-5.29c-0.28-1.97,1.26-3.44,1.92-5.15c0.27-2.53,0.14-5.08,0.21-7.61c1.27-0.46,2.54-0.92,3.84-1.37
	c1.48,3.73,1.93,7.93,2.06,11.92C1406.04,562.23,1404.57,565.11,1402.21,567.23z M1407.09,566.17c-1.29-0.65-1.24-1.32,0.13-2.04
	C1408.47,564.78,1408.43,565.46,1407.09,566.17z M2058.02,571.34c-1.01-0.87-1.99-1.73-2.95-2.58c-0.16-4.52-0.15-9.04,0-13.55
	c0.93-0.8,1.89-1.6,2.89-2.36c0.57,2.35-0.08,4.89,1,7.13C2062.621,570.079,2060.793,568.353,2058.02,571.34z M2081.97,566.62
	c-2.07,0.65-4.02,1.55-6.04,2.25c-1.88-0.79-4.06-2.64-3.91-4.89c-0.09-3.57-0.23-7.15,0.14-10.7c1.54-2.47,5.49-1.48,6.49,1.07
	C2080.4,558.21,2082.62,562.22,2081.97,566.62z M2094.15,568.71c-0.4-5.27-0.11-10.57-0.11-15.85c3.31-0.24,1.11,4.3,3.16,5.94
	c2.68,3.17,1.71,7.47,1.73,11.28C2097.25,569.85,2095.07,570.54,2094.15,568.71z M2122.27,990.22c1.64,0.26,0.19,3.71-1.13,3.34
	C2120.38,992.43,2121.04,990.7,2122.27,990.22z M2116.11,995.73c2.98,1.24,5.01,3.93,7.78,5.58c0.06,1.47,0.14,2.95,0.25,4.44
	c-1.33-0.32-2.63-0.6-3.92-0.84c-1.36,0.82-2.72,1.63-4.12,2.34C2115.91,1003.41,2115.89,999.56,2116.11,995.73z M2125.83,1020.44
	c-3-1.43-5.7-3.61-8.83-4.84c-0.41-2.48,0.82-4.64,2.15-6.61c0.66,0.01,1.98,0.01,2.64,0.01c0.12,1.29,0.25,2.6,0.42,3.91
	c2.28,0.96,4.91,0.48,7.09-0.57c0.9-1.42,0.39-3.39,1.6-4.66C2131.452,1019.423,2130.666,1017.793,2125.83,1020.44z
	 M2130.93,1004.72c-1.03,0.42-2.03,0.86-3,1.32c0.01-1.61,0.06-3.19,0.14-4.77c0.98-0.44,1.98-0.87,3.01-1.3
	C2131,1001.54,2130.96,1003.13,2130.93,1004.72z M2168.99,995.93c2.64,3.34,8.19,4.85,8.15,9.82c-2.92,0.09-5.72,0.85-8.29,2.18
	C2168.35,1003.96,2169.41,999.93,2168.99,995.93z M2178.04,1020.95c-2.31-1.45-5.14-2.15-6.93-4.27c-0.97-3.08,0.87-5.7,2.76-7.91
	c0.52,1.33,1.02,2.68,1.51,4.06c2.44,0.53,5.44-0.19,7.53,1.45c0.12,1.51,0.09,3.05,0.16,4.6
	C2181.43,1019.7,2179.74,1020.34,2178.04,1020.95z M2181.26,1007.13c-0.44-1.06-0.85-2.1-1.25-3.13c0.39-0.99,0.8-1.97,1.22-2.94
	c0.71-0.02,2.13-0.05,2.84-0.06C2184.43,1003.58,2183.5,1005.77,2181.26,1007.13z M2222.04,996.83c2.22,1.94,4.45,3.9,6.96,5.52
	c-0.13,1.59,0.48,3.62-1.28,4.5c-2.23,0.33-4.48,0.15-6.68,0.14C2221.11,1003.6,2220.25,999.92,2222.04,996.83z M2234.96,1018.75
	c-1.28,1.08-2.67,3.08-4.53,1.9c-2.91-1.36-8.35-2.16-7.43-6.49c0.73-1.53,1.28-4.68,3.55-4.04c0.51,1.26,0.99,2.57,1.55,3.86
	c2.29-0.01,4.6,0.02,6.93,0.1C2234.97,1015.62,2234.95,1017.18,2234.96,1018.75z M2234.84,1007.06c-3.54-1.13-0.79-5,1.12-6.35
	C2235.88,1002.83,2236.55,1005.38,2234.84,1007.06z M2287.14,965.24c2.02,2.69-0.86,5.65-1.51,8.38c-0.55,2.24-2.39,3.5-4.36,4.36
	c-3.75-4.05-4.86-9.42-7.27-14.21C2278.32,964.74,2282.67,967.17,2287.14,965.24z M2288,1001c-0.03,1.65-0.03,3.32,0,5h-2
	c-0.03-1.68-0.03-3.34-0.01-4.99C2286.5,1001.01,2287.5,1001,2288,1001z M2281.01,993.99c-1.45-0.01-2.87-0.02-4.27-0.02
	c1.11-1.4,2.27-2.98,4.22-3.2C2280.97,991.58,2280.99,993.19,2281.01,993.99z M2274.09,994.73c2.1,3.47,5.74,5.12,8.89,7.46
	c-0.02,1.19-0.01,2.39,0.04,3.61c-3.04,0.17-6.02,0.65-8.96,1.28C2273.95,1002.96,2273.88,998.84,2274.09,994.73z M2284.1,1020.91
	c-3-1.51-6.83-2.67-7.84-6.28c-1.35-2.69,0.93-5.31,3.53-5.88c0.1,1.39,0.23,2.8,0.38,4.22c2.16-0.4,4.37-0.42,6.53,0.16
	c0.43,0.97,0.9,1.95,1.41,2.93C2286.98,1017.75,2286.23,1020.38,2284.1,1020.91z M2797.91,1015.74c-0.32-2.41,1.46-4.51,3.82-4.9
	c0.38,1.69,0.84,3.4,1.34,5.1C2801.44,1017.52,2799.6,1016.53,2797.91,1015.74z M2797.25,1008.06c-1.12-3.34-1.58-6.85-1.19-10.35
	c2.68,1.78,4.76,4.41,7.83,5.72c0.01,1.09,0.06,2.19,0.14,3.31C2801.74,1007.16,2799.5,1007.66,2797.25,1008.06z M2849.31,1013.82
	c0.33-1.55,1.19-4.41,3.29-3.68c1.12,2.93,2.58,5.85,2.47,9.09C2852.57,1018.19,2850.4,1016.28,2849.31,1013.82z M2847.99,1007.1
	c0.02-3.14,0.27-6.26,0.29-9.39c2.98,1.75,6.62,4.24,6.86,8.01C2852.73,1006.15,2850.36,1006.68,2847.99,1007.1z M2904.87,1020.15
	c-1.75-1.59-4.64-3.14-3.84-5.94c0.65-1.82,1.81-3.75,3.72-4.48C2904.82,1013.2,2906.35,1016.78,2904.87,1020.15z M2900.01,1008
	c-0.06-3.73-0.06-7.45-0.01-11.17c1.5,2.29,3.58,4.09,5.95,5.48c-0.01,1.47,0,2.94,0.05,4.43
	C2903.96,1007.1,2901.97,1007.54,2900.01,1008z M2948.94,830.87c0.06,2.09-2.38,2.23-3.87,2.25
	c-0.64-40.528-0.559-42.752,2.82-45.43c0.2,6.75,0.03,13.52,0.38,20.29C2949.54,815.53,2948.9,823.24,2948.94,830.87z
	 M2984.61,826.8c-6.51,0.3-13.06,2.25-19.55,1.14c-0.05-10.59-0.23-21.2,0.08-31.78c1.82-4.21,3.9-8.44,3.87-13.15
	c-0.15-6.12,6.66-9.18,11.82-10.03c1.24,3.62,4.4,6.32,5.03,10.19c0.72,12.08-0.82,24.29,0.97,36.3
	C2987.4,822.16,2985.38,824.37,2984.61,826.8z M2995.67,823.36c-1.05-1.18-0.58-2.92-0.71-4.32c0.15-8.13-0.17-16.27,0.17-24.38
	c2.09,3.01,1.91,6.83,1.88,10.33c-0.22,5.71,0.55,11.39,0.68,17.09C2998.05,823.04,2996.15,824.96,2995.67,823.36z M3027.89,821.83
	c-0.68,1.89-2.09,3.41-3.12,5.1c-16.292,0.264-19.504,0.797-18.73-2.96c-1.186-19.119-2.598-27.146,2.59-32.42
	c1.906-6.967-4.426-15.036,12.22-20.4c3.4,3.11,4.27,7.9,6.02,12.01C3026.91,796.06,3028.69,808.91,3027.89,821.83z M3046.92,830.05
	c-1.33-0.73-2.63-1.45-3.89-2.18c-0.424-36.317-0.582-37.113,2.82-41.15c1.827,2.595,0.925,3.407,1.17,30.31
	C3046.99,821.37,3048.39,825.79,3046.92,830.05z M3203.04,685c-0.15,7.24,0.09,14.48-0.12,21.72c-1.96,0.87-3.89,1.74-5.86,2.49
	c0.453-16.596-4.106-47.305,1.69-53.48c1.62-1.56,1.02-4.03,1.51-6.03c3.12,5.92,1.25,12.9,1.72,19.3
	C3201.39,674.4,3203.26,679.61,3203.04,685z M3242.03,700.99c-7.77-0.5-15.25,2.54-23,2.01c-0.31-8.9,0.51-17.85-0.61-26.71
	c-2.198-12.369,6.094-16.231,4.72-25.36c-0.29-2.86,0.86-5.86,3.32-7.46c2.13-2.85,5.98-2.48,8.79-4.37c2.6-0.17,5,1.57,7.57,2.11
	c4.13,1.37,5.83,5.83,6.09,9.86c0.48,14.58-0.51,29.22,0.51,43.78C3247.91,697.73,3245.93,701.66,3242.03,700.99z M3295.6,699.89
	c-9.85-0.16-19.88,1.13-29.54-1.11c-0.13-10.59-0.08-21.17-0.04-31.75c-0.24-3.03,3.39-4.38,3.82-7.19
	c0.63-3.25,0.78-6.55,0.21-9.81c0.377-6.577,11.869-14.852,17.39-12.54c4.89,0.27,6.7,5.41,9.35,8.73
	c-1.61,4.33,1.39,8.41,1.23,12.75C3297.807,707.177,3298.818,689.566,3295.6,699.89z M3320.03,674
	c-0.12,10.03,0.08,20.07-0.09,30.11c-2.32-0.43-4.61-0.93-6.88-1.33c-0.15-6.2,0.04-12.39-0.27-18.57
	c0.499-4.346-3.5-21.755,2.41-28.08c1.87-2.12,0.02-5.04-0.19-7.44c2.67,1.86,4.47,4.93,4.01,8.27
	C3318.39,662.71,3320.42,668.26,3320.03,674z"/>
</svg>
